<svg width="1007px" height="443px"
 viewBox="0.00 0.00 755.17 332.00" xmlns="http://www.w3.org/2000/svg" xmlns:xlink="http://www.w3.org/1999/xlink">
<g id="graph0" class="graph" transform=" rotate(0) translate(4 328)">
<title>%0</title>
<polygon fill="#ffffff" stroke="transparent" points="-4,4 -4,-328 751.1671,-328 751.1671,4 -4,4"/>
<!-- configserver -->
<g id="node1" class="node">
<title>configserver</title>
<ellipse fill="none" stroke="#000000" cx="383.0075" cy="-90" rx="59.0891" ry="18"/>
<text text-anchor="middle" x="383.0075" y="-85.8" font-family="Times,serif" font-size="14.00" fill="#000000">configserver</text>
</g>
<!-- mysqldb -->
<g id="node2" class="node">
<title>mysqldb</title>
<ellipse fill="none" stroke="#000000" cx="383.0075" cy="-18" rx="44.1045" ry="18"/>
<text text-anchor="middle" x="383.0075" y="-13.8" font-family="Times,serif" font-size="14.00" fill="#000000">mysqldb</text>
</g>
<!-- configserver&#45;&gt;mysqldb -->
<g id="edge1" class="edge">
<title>configserver&#45;&gt;mysqldb</title>
<path fill="none" stroke="#0000ff" d="M383.0075,-71.8314C383.0075,-64.131 383.0075,-54.9743 383.0075,-46.4166"/>
<polygon fill="#0000ff" stroke="#0000ff" points="386.5076,-46.4132 383.0075,-36.4133 379.5076,-46.4133 386.5076,-46.4132"/>
</g>
<!-- eurekaregistry -->
<g id="node3" class="node">
<title>eurekaregistry</title>
<ellipse fill="none" stroke="#000000" cx="312.0075" cy="-162" rx="66.03" ry="18"/>
<text text-anchor="middle" x="312.0075" y="-157.8" font-family="Times,serif" font-size="14.00" fill="#000000">eurekaregistry</text>
</g>
<!-- eurekaregistry&#45;&gt;configserver -->
<g id="edge2" class="edge">
<title>eurekaregistry&#45;&gt;configserver</title>
<path fill="none" stroke="#0000ff" d="M329.1946,-144.5708C338.0901,-135.55 349.0981,-124.387 358.8358,-114.5121"/>
<polygon fill="#0000ff" stroke="#0000ff" points="361.4493,-116.8466 365.9786,-107.2687 356.465,-111.9315 361.4493,-116.8466"/>
</g>
<!-- authserver -->
<g id="node4" class="node">
<title>authserver</title>
<ellipse fill="none" stroke="#000000" cx="55.0075" cy="-234" rx="51.003" ry="18"/>
<text text-anchor="middle" x="55.0075" y="-229.8" font-family="Times,serif" font-size="14.00" fill="#000000">authserver</text>
</g>
<!-- authserver&#45;&gt;eurekaregistry -->
<g id="edge3" class="edge">
<title>authserver&#45;&gt;eurekaregistry</title>
<path fill="none" stroke="#0000ff" d="M94.0206,-222.1487C101.0005,-220.0704 108.2128,-217.9501 115.0075,-216 161.9861,-202.5166 215.4787,-187.9001 254.8557,-177.2785"/>
<polygon fill="#0000ff" stroke="#0000ff" points="255.8046,-180.6478 264.5502,-174.6673 253.984,-173.8887 255.8046,-180.6478"/>
</g>
<!-- apigateway -->
<g id="node5" class="node">
<title>apigateway</title>
<ellipse fill="none" stroke="#000000" cx="55.0075" cy="-306" rx="55.0149" ry="18"/>
<text text-anchor="middle" x="55.0075" y="-301.8" font-family="Times,serif" font-size="14.00" fill="#000000">apigateway</text>
</g>
<!-- apigateway&#45;&gt;authserver -->
<g id="edge4" class="edge">
<title>apigateway&#45;&gt;authserver</title>
<path fill="none" stroke="#0000ff" d="M55.0075,-287.8314C55.0075,-280.131 55.0075,-270.9743 55.0075,-262.4166"/>
<polygon fill="#0000ff" stroke="#0000ff" points="58.5076,-262.4132 55.0075,-252.4133 51.5076,-262.4133 58.5076,-262.4132"/>
</g>
<!-- webportal -->
<g id="node6" class="node">
<title>webportal</title>
<ellipse fill="none" stroke="#000000" cx="174.0075" cy="-234" rx="49.7981" ry="18"/>
<text text-anchor="middle" x="174.0075" y="-229.8" font-family="Times,serif" font-size="14.00" fill="#000000">webportal</text>
</g>
<!-- webportal&#45;&gt;eurekaregistry -->
<g id="edge5" class="edge">
<title>webportal&#45;&gt;eurekaregistry</title>
<path fill="none" stroke="#0000ff" d="M202.6012,-219.0816C222.7235,-208.5829 249.9247,-194.391 272.17,-182.7848"/>
<polygon fill="#0000ff" stroke="#0000ff" points="273.8042,-185.88 281.051,-178.1512 270.5662,-179.6739 273.8042,-185.88"/>
</g>
<!-- userwebservice -->
<g id="node7" class="node">
<title>userwebservice</title>
<ellipse fill="none" stroke="#000000" cx="312.0075" cy="-234" rx="70.6026" ry="18"/>
<text text-anchor="middle" x="312.0075" y="-229.8" font-family="Times,serif" font-size="14.00" fill="#000000">userwebservice</text>
</g>
<!-- userwebservice&#45;&gt;eurekaregistry -->
<g id="edge6" class="edge">
<title>userwebservice&#45;&gt;eurekaregistry</title>
<path fill="none" stroke="#0000ff" d="M312.0075,-215.8314C312.0075,-208.131 312.0075,-198.9743 312.0075,-190.4166"/>
<polygon fill="#0000ff" stroke="#0000ff" points="315.5076,-190.4132 312.0075,-180.4133 308.5076,-190.4133 315.5076,-190.4132"/>
</g>
<!-- taskwebservice -->
<g id="node8" class="node">
<title>taskwebservice</title>
<ellipse fill="none" stroke="#000000" cx="471.0075" cy="-234" rx="70.0403" ry="18"/>
<text text-anchor="middle" x="471.0075" y="-229.8" font-family="Times,serif" font-size="14.00" fill="#000000">taskwebservice</text>
</g>
<!-- taskwebservice&#45;&gt;eurekaregistry -->
<g id="edge7" class="edge">
<title>taskwebservice&#45;&gt;eurekaregistry</title>
<path fill="none" stroke="#0000ff" d="M436.1142,-218.1993C412.445,-207.4812 380.9762,-193.2311 355.6495,-181.7624"/>
<polygon fill="#0000ff" stroke="#0000ff" points="356.826,-178.4531 346.2726,-177.5163 353.9384,-184.8298 356.826,-178.4531"/>
</g>
<!-- commentswebservice -->
<g id="node9" class="node">
<title>commentswebservice</title>
<ellipse fill="none" stroke="#000000" cx="653.0075" cy="-234" rx="94.3195" ry="18"/>
<text text-anchor="middle" x="653.0075" y="-229.8" font-family="Times,serif" font-size="14.00" fill="#000000">commentswebservice</text>
</g>
<!-- commentswebservice&#45;&gt;eurekaregistry -->
<g id="edge8" class="edge">
<title>commentswebservice&#45;&gt;eurekaregistry</title>
<path fill="none" stroke="#0000ff" d="M586.4608,-221.1663C532.5719,-210.6111 454.7544,-195.0013 387.0075,-180 381.9883,-178.8886 376.7879,-177.7057 371.5734,-176.4978"/>
<polygon fill="#0000ff" stroke="#0000ff" points="372.1068,-173.0282 361.5722,-174.1563 370.5111,-179.8439 372.1068,-173.0282"/>
</g>
<!-- zipkinserver -->
<g id="node10" class="node">
<title>zipkinserver</title>
<ellipse fill="none" stroke="#000000" cx="455.0075" cy="-162" rx="58.5271" ry="18"/>
<text text-anchor="middle" x="455.0075" y="-157.8" font-family="Times,serif" font-size="14.00" fill="#000000">zipkinserver</text>
</g>
<!-- zipkinserver&#45;&gt;configserver -->
<g id="edge9" class="edge">
<title>zipkinserver&#45;&gt;configserver:configserver</title>
<path fill="none" stroke="#0000ff" d="M437.5783,-144.5708C428.5575,-135.55 417.3944,-124.387 407.5196,-114.5121"/>
<polygon fill="#0000ff" stroke="#0000ff" points="409.8221,-111.8649 400.2762,-107.2687 404.8724,-116.8147 409.8221,-111.8649"/>
</g>
</g>
</svg>
