<svg width="1013px" height="251px"
 viewBox="0.00 0.00 759.81 188.00" xmlns="http://www.w3.org/2000/svg" xmlns:xlink="http://www.w3.org/1999/xlink">
<g id="graph0" class="graph" transform=" rotate(0) translate(4 184)">
<title>%0</title>
<polygon fill="#ffffff" stroke="transparent" points="-4,4 -4,-184 755.8085,-184 755.8085,4 -4,4"/>
<!-- eurekaregistry -->
<g id="node1" class="node">
<title>eurekaregistry</title>
<ellipse fill="none" stroke="#000000" cx="313.6488" cy="-90" rx="66.03" ry="18"/>
<text text-anchor="middle" x="313.6488" y="-85.8" font-family="Times,serif" font-size="14.00" fill="#000000">eurekaregistry</text>
</g>
<!-- configserver -->
<g id="node2" class="node">
<title>configserver</title>
<ellipse fill="none" stroke="#000000" cx="313.6488" cy="-18" rx="59.0891" ry="18"/>
<text text-anchor="middle" x="313.6488" y="-13.8" font-family="Times,serif" font-size="14.00" fill="#000000">configserver</text>
</g>
<!-- eurekaregistry&#45;&gt;configserver -->
<g id="edge1" class="edge">
<title>eurekaregistry&#45;&gt;configserver</title>
<path fill="none" stroke="#0000ff" d="M313.6488,-71.8314C313.6488,-64.131 313.6488,-54.9743 313.6488,-46.4166"/>
<polygon fill="#0000ff" stroke="#0000ff" points="317.1489,-46.4132 313.6488,-36.4133 310.1489,-46.4133 317.1489,-46.4132"/>
</g>
<!-- authserver -->
<g id="node3" class="node">
<title>authserver</title>
<ellipse fill="none" stroke="#000000" cx="449.6488" cy="-90" rx="51.003" ry="18"/>
<text text-anchor="middle" x="449.6488" y="-85.8" font-family="Times,serif" font-size="14.00" fill="#000000">authserver</text>
</g>
<!-- authserver&#45;&gt;configserver -->
<g id="edge2" class="edge">
<title>authserver&#45;&gt;configserver</title>
<path fill="none" stroke="#0000ff" d="M421.1388,-74.9064C401.2379,-64.3707 374.4315,-50.179 352.5673,-38.6039"/>
<polygon fill="#0000ff" stroke="#0000ff" points="354.0096,-35.4072 343.534,-33.8216 350.7343,-41.5938 354.0096,-35.4072"/>
</g>
<!-- apigateway -->
<g id="node4" class="node">
<title>apigateway</title>
<ellipse fill="none" stroke="#000000" cx="172.6488" cy="-162" rx="55.0149" ry="18"/>
<text text-anchor="middle" x="172.6488" y="-157.8" font-family="Times,serif" font-size="14.00" fill="#000000">apigateway</text>
</g>
<!-- apigateway&#45;&gt;eurekaregistry -->
<g id="edge3" class="edge">
<title>apigateway&#45;&gt;eurekaregistry</title>
<path fill="none" stroke="#0000ff" d="M202.5513,-146.7307C223.1556,-136.2093 250.778,-122.1042 273.3249,-110.591"/>
<polygon fill="#0000ff" stroke="#0000ff" points="275.0092,-113.6608 282.3235,-105.9959 271.8257,-107.4266 275.0092,-113.6608"/>
</g>
<!-- apigateway&#45;&gt;configserver -->
<g id="edge5" class="edge">
<title>apigateway&#45;&gt;configserver</title>
<path fill="none" stroke="#0000ff" d="M180.9834,-144.1758C190.6808,-124.7808 208.1433,-93.6516 229.6488,-72 242.4981,-59.0635 258.9672,-47.6422 273.9131,-38.6746"/>
<polygon fill="#0000ff" stroke="#0000ff" points="276.083,-41.4622 282.9763,-33.4165 272.5702,-35.4074 276.083,-41.4622"/>
</g>
<!-- apigateway&#45;&gt;authserver -->
<g id="edge4" class="edge">
<title>apigateway&#45;&gt;authserver</title>
<path fill="none" stroke="#0000ff" d="M214.2373,-150.0325C221.6852,-147.9666 229.3859,-145.8806 236.6488,-144 303.8569,-126.5981 321.5533,-125.8308 388.6488,-108 392.6706,-106.9312 396.8302,-105.787 401,-104.6127"/>
<polygon fill="#0000ff" stroke="#0000ff" points="402.0372,-107.9565 410.6878,-101.8396 400.1107,-101.2268 402.0372,-107.9565"/>
</g>
<!-- webportal -->
<g id="node5" class="node">
<title>webportal</title>
<ellipse fill="none" stroke="#000000" cx="49.6488" cy="-162" rx="49.7981" ry="18"/>
<text text-anchor="middle" x="49.6488" y="-157.8" font-family="Times,serif" font-size="14.00" fill="#000000">webportal</text>
</g>
<!-- webportal&#45;&gt;eurekaregistry -->
<g id="edge6" class="edge">
<title>webportal&#45;&gt;eurekaregistry</title>
<path fill="none" stroke="#0000ff" d="M87.3544,-150.2602C94.4164,-148.1286 101.7469,-145.9611 108.6488,-144 157.8718,-130.014 214.0963,-115.2916 255.1979,-104.7581"/>
<polygon fill="#0000ff" stroke="#0000ff" points="256.2225,-108.1088 265.0439,-102.2407 254.4885,-101.3269 256.2225,-108.1088"/>
</g>
<!-- webportal&#45;&gt;configserver -->
<g id="edge7" class="edge">
<title>webportal&#45;&gt;configserver</title>
<path fill="none" stroke="#0000ff" d="M73.9744,-146.2284C103.104,-127.5962 153.6139,-96.09 198.6488,-72 221.9441,-59.539 248.6149,-46.9174 270.4033,-37.0134"/>
<polygon fill="#0000ff" stroke="#0000ff" points="272.0539,-40.1084 279.7286,-32.8043 269.1741,-33.7282 272.0539,-40.1084"/>
</g>
<!-- userwebservice -->
<g id="node6" class="node">
<title>userwebservice</title>
<ellipse fill="none" stroke="#000000" cx="316.6488" cy="-162" rx="70.6026" ry="18"/>
<text text-anchor="middle" x="316.6488" y="-157.8" font-family="Times,serif" font-size="14.00" fill="#000000">userwebservice</text>
</g>
<!-- userwebservice&#45;&gt;eurekaregistry -->
<g id="edge8" class="edge">
<title>userwebservice&#45;&gt;eurekaregistry</title>
<path fill="none" stroke="#0000ff" d="M315.8918,-143.8314C315.571,-136.131 315.1894,-126.9743 314.8329,-118.4166"/>
<polygon fill="#0000ff" stroke="#0000ff" points="318.3294,-118.2589 314.4161,-108.4133 311.3355,-118.5503 318.3294,-118.2589"/>
</g>
<!-- userwebservice&#45;&gt;configserver -->
<g id="edge10" class="edge">
<title>userwebservice&#45;&gt;configserver</title>
<path fill="none" stroke="#0000ff" d="M280.1361,-146.398C264.3622,-137.5971 247.5158,-124.9232 238.6488,-108 231.2231,-93.8275 231.3544,-86.2405 238.6488,-72 245.7808,-58.0767 258.3593,-46.9262 271.201,-38.4559"/>
<polygon fill="#0000ff" stroke="#0000ff" points="273.3736,-41.2294 280.0698,-33.019 269.715,-35.2616 273.3736,-41.2294"/>
</g>
<!-- userwebservice&#45;&gt;authserver -->
<g id="edge9" class="edge">
<title>userwebservice&#45;&gt;authserver</title>
<path fill="none" stroke="#0000ff" d="M346.8286,-145.6621C366.3231,-135.1086 391.8247,-121.3033 412.5534,-110.0817"/>
<polygon fill="#0000ff" stroke="#0000ff" points="414.2795,-113.1273 421.4074,-105.2886 410.947,-106.9714 414.2795,-113.1273"/>
</g>
<!-- taskwebservice -->
<g id="node7" class="node">
<title>taskwebservice</title>
<ellipse fill="none" stroke="#000000" cx="475.6488" cy="-162" rx="70.0403" ry="18"/>
<text text-anchor="middle" x="475.6488" y="-157.8" font-family="Times,serif" font-size="14.00" fill="#000000">taskwebservice</text>
</g>
<!-- taskwebservice&#45;&gt;eurekaregistry -->
<g id="edge11" class="edge">
<title>taskwebservice&#45;&gt;eurekaregistry</title>
<path fill="none" stroke="#0000ff" d="M440.4972,-146.3771C416.2136,-135.5843 383.7323,-121.1482 357.7178,-109.5862"/>
<polygon fill="#0000ff" stroke="#0000ff" points="359.0128,-106.3317 348.4532,-105.4686 356.1698,-112.7284 359.0128,-106.3317"/>
</g>
<!-- taskwebservice&#45;&gt;configserver -->
<g id="edge13" class="edge">
<title>taskwebservice&#45;&gt;configserver</title>
<path fill="none" stroke="#0000ff" d="M491.8136,-144.2789C507.3973,-124.974 526.349,-93.9234 509.6488,-72 493.5578,-50.8762 428.6699,-35.9287 377.9066,-27.1947"/>
<polygon fill="#0000ff" stroke="#0000ff" points="378.4014,-23.729 367.961,-25.5308 377.2463,-30.633 378.4014,-23.729"/>
</g>
<!-- taskwebservice&#45;&gt;authserver -->
<g id="edge12" class="edge">
<title>taskwebservice&#45;&gt;authserver</title>
<path fill="none" stroke="#0000ff" d="M469.0879,-143.8314C466.2024,-135.8406 462.7506,-126.2819 459.5618,-117.4514"/>
<polygon fill="#0000ff" stroke="#0000ff" points="462.806,-116.1302 456.1176,-107.9134 456.2221,-118.5077 462.806,-116.1302"/>
</g>
<!-- commentswebservice -->
<g id="node8" class="node">
<title>commentswebservice</title>
<ellipse fill="none" stroke="#000000" cx="657.6488" cy="-162" rx="94.3195" ry="18"/>
<text text-anchor="middle" x="657.6488" y="-157.8" font-family="Times,serif" font-size="14.00" fill="#000000">commentswebservice</text>
</g>
<!-- commentswebservice&#45;&gt;eurekaregistry -->
<g id="edge14" class="edge">
<title>commentswebservice&#45;&gt;eurekaregistry</title>
<path fill="none" stroke="#0000ff" d="M591.1613,-149.2503C536.8516,-138.6804 458.1503,-123.0088 389.6488,-108 384.3507,-106.8392 378.8528,-105.6017 373.3469,-104.3397"/>
<polygon fill="#0000ff" stroke="#0000ff" points="374.0007,-100.8986 363.469,-102.0533 372.422,-107.7183 374.0007,-100.8986"/>
</g>
<!-- commentswebservice&#45;&gt;configserver -->
<g id="edge16" class="edge">
<title>commentswebservice&#45;&gt;configserver</title>
<path fill="none" stroke="#0000ff" d="M636.8228,-144.1847C612.0991,-123.9042 568.8791,-91.1192 526.6488,-72 478.6086,-50.2505 420.3449,-36.2445 376.9056,-27.9609"/>
<polygon fill="#0000ff" stroke="#0000ff" points="377.5071,-24.5128 367.0362,-26.1284 376.2292,-31.3952 377.5071,-24.5128"/>
</g>
<!-- commentswebservice&#45;&gt;authserver -->
<g id="edge15" class="edge">
<title>commentswebservice&#45;&gt;authserver</title>
<path fill="none" stroke="#0000ff" d="M612.0024,-146.1993C577.6082,-134.2936 530.6246,-118.0301 496.0484,-106.0614"/>
<polygon fill="#0000ff" stroke="#0000ff" points="496.7907,-102.6146 486.1959,-102.6509 494.5009,-109.2295 496.7907,-102.6146"/>
</g>
</g>
</svg>
