<svg width="981px" height="251px"
 viewBox="0.00 0.00 735.95 188.00" xmlns="http://www.w3.org/2000/svg" xmlns:xlink="http://www.w3.org/1999/xlink">
<g id="graph0" class="graph" transform=" rotate(0) translate(4 184)">
<title>%0</title>
<polygon fill="#ffffff" stroke="transparent" points="-4,4 -4,-184 731.9513,-184 731.9513,4 -4,4"/>
<!-- discovery_server -->
<g id="node1" class="node">
<title>discovery_server</title>
<ellipse fill="none" stroke="#000000" cx="369.3598" cy="-90" rx="76.9869" ry="18"/>
<text text-anchor="middle" x="369.3598" y="-85.8" font-family="Times,serif" font-size="14.00" fill="#000000">discovery_server</text>
</g>
<!-- config_server -->
<g id="node2" class="node">
<title>config_server</title>
<ellipse fill="none" stroke="#000000" cx="421.3598" cy="-18" rx="64.2456" ry="18"/>
<text text-anchor="middle" x="421.3598" y="-13.8" font-family="Times,serif" font-size="14.00" fill="#000000">config_server</text>
</g>
<!-- discovery_server&#45;&gt;config_server -->
<g id="edge1" class="edge">
<title>discovery_server&#45;&gt;config_server</title>
<path fill="none" stroke="#0000ff" d="M382.2137,-72.2022C388.3388,-63.7214 395.7848,-53.4115 402.5318,-44.0696"/>
<polygon fill="#0000ff" stroke="#0000ff" points="405.456,-45.9986 408.4735,-35.8425 399.7812,-41.9001 405.456,-45.9986"/>
</g>
<!-- customers_service -->
<g id="node3" class="node">
<title>customers_service</title>
<ellipse fill="none" stroke="#000000" cx="82.3598" cy="-162" rx="82.2198" ry="18"/>
<text text-anchor="middle" x="82.3598" y="-157.8" font-family="Times,serif" font-size="14.00" fill="#000000">customers_service</text>
</g>
<!-- customers_service&#45;&gt;discovery_server -->
<g id="edge3" class="edge">
<title>customers_service&#45;&gt;discovery_server</title>
<path fill="none" stroke="#0000ff" d="M136.6797,-148.3727C185.1275,-136.2185 256.0443,-118.4276 306.8379,-105.6849"/>
<polygon fill="#0000ff" stroke="#0000ff" points="307.8679,-109.0351 316.7157,-103.2069 306.1645,-102.2455 307.8679,-109.0351"/>
</g>
<!-- customers_service&#45;&gt;config_server -->
<g id="edge2" class="edge">
<title>customers_service&#45;&gt;config_server</title>
<path fill="none" stroke="#0000ff" d="M111.7176,-145.0933C145.9459,-125.8112 204.5752,-94.1026 257.3598,-72 292.9416,-57.1008 334.1921,-43.5354 366.4209,-33.7278"/>
<polygon fill="#0000ff" stroke="#0000ff" points="367.5514,-37.0427 376.1171,-30.8073 365.5325,-30.3401 367.5514,-37.0427"/>
</g>
<!-- visits_service -->
<g id="node4" class="node">
<title>visits_service</title>
<ellipse fill="none" stroke="#000000" cx="246.3598" cy="-162" rx="63.6967" ry="18"/>
<text text-anchor="middle" x="246.3598" y="-157.8" font-family="Times,serif" font-size="14.00" fill="#000000">visits_service</text>
</g>
<!-- visits_service&#45;&gt;discovery_server -->
<g id="edge5" class="edge">
<title>visits_service&#45;&gt;discovery_server</title>
<path fill="none" stroke="#0000ff" d="M274.2704,-145.6621C291.3257,-135.6785 313.3527,-122.7847 331.9112,-111.9212"/>
<polygon fill="#0000ff" stroke="#0000ff" points="333.8441,-114.8453 340.7061,-106.7729 330.3078,-108.8042 333.8441,-114.8453"/>
</g>
<!-- visits_service&#45;&gt;config_server -->
<g id="edge4" class="edge">
<title>visits_service&#45;&gt;config_server</title>
<path fill="none" stroke="#0000ff" d="M249.4484,-143.7401C253.741,-123.6659 263.3614,-91.6601 283.3598,-72 303.7763,-51.9289 332.5198,-39.1035 358.4927,-31.0172"/>
<polygon fill="#0000ff" stroke="#0000ff" points="359.6772,-34.3173 368.2883,-28.1448 357.7075,-27.6001 359.6772,-34.3173"/>
</g>
<!-- vets_service -->
<g id="node5" class="node">
<title>vets_service</title>
<ellipse fill="none" stroke="#000000" cx="386.3598" cy="-162" rx="58.5251" ry="18"/>
<text text-anchor="middle" x="386.3598" y="-157.8" font-family="Times,serif" font-size="14.00" fill="#000000">vets_service</text>
</g>
<!-- vets_service&#45;&gt;discovery_server -->
<g id="edge7" class="edge">
<title>vets_service&#45;&gt;discovery_server</title>
<path fill="none" stroke="#0000ff" d="M382.07,-143.8314C380.2518,-136.131 378.0899,-126.9743 376.0693,-118.4166"/>
<polygon fill="#0000ff" stroke="#0000ff" points="379.4117,-117.3414 373.7074,-108.4133 372.599,-118.95 379.4117,-117.3414"/>
</g>
<!-- vets_service&#45;&gt;config_server -->
<g id="edge6" class="edge">
<title>vets_service&#45;&gt;config_server</title>
<path fill="none" stroke="#0000ff" d="M416.9613,-146.5917C431.4422,-137.5152 447.298,-124.5465 455.3598,-108 465.5449,-87.0958 454.5969,-62.311 442.489,-44.0487"/>
<polygon fill="#0000ff" stroke="#0000ff" points="445.177,-41.7884 436.5394,-35.6531 439.4657,-45.8358 445.177,-41.7884"/>
</g>
<!-- api_gateway -->
<g id="node6" class="node">
<title>api_gateway</title>
<ellipse fill="none" stroke="#000000" cx="523.3598" cy="-162" rx="59.6723" ry="18"/>
<text text-anchor="middle" x="523.3598" y="-157.8" font-family="Times,serif" font-size="14.00" fill="#000000">api_gateway</text>
</g>
<!-- api_gateway&#45;&gt;discovery_server -->
<g id="edge9" class="edge">
<title>api_gateway&#45;&gt;discovery_server</title>
<path fill="none" stroke="#0000ff" d="M490.7004,-146.7307C468.0746,-136.1524 437.7005,-121.9515 413.0024,-110.4043"/>
<polygon fill="#0000ff" stroke="#0000ff" points="414.3837,-107.1865 403.8425,-106.1218 411.419,-113.5277 414.3837,-107.1865"/>
</g>
<!-- api_gateway&#45;&gt;config_server -->
<g id="edge8" class="edge">
<title>api_gateway&#45;&gt;config_server</title>
<path fill="none" stroke="#0000ff" d="M514.4937,-144.0245C504.9255,-125.3188 488.7109,-95.5277 471.3598,-72 463.9696,-61.9791 454.9603,-51.7622 446.6354,-42.9508"/>
<polygon fill="#0000ff" stroke="#0000ff" points="449.0155,-40.3768 439.5538,-35.6095 443.9774,-45.2367 449.0155,-40.3768"/>
</g>
<!-- admin_server -->
<g id="node7" class="node">
<title>admin_server</title>
<ellipse fill="none" stroke="#000000" cx="664.3598" cy="-162" rx="63.6832" ry="18"/>
<text text-anchor="middle" x="664.3598" y="-157.8" font-family="Times,serif" font-size="14.00" fill="#000000">admin_server</text>
</g>
<!-- admin_server&#45;&gt;discovery_server -->
<g id="edge11" class="edge">
<title>admin_server&#45;&gt;discovery_server</title>
<path fill="none" stroke="#0000ff" d="M616.7352,-150.0411C608.6052,-148.0147 600.242,-145.9396 592.3598,-144 538.7785,-130.8151 477.8899,-116.0881 433.2905,-105.3483"/>
<polygon fill="#0000ff" stroke="#0000ff" points="434.0025,-101.9198 423.4611,-102.9823 432.3643,-108.7254 434.0025,-101.9198"/>
</g>
<!-- admin_server&#45;&gt;config_server -->
<g id="edge10" class="edge">
<title>admin_server&#45;&gt;config_server</title>
<path fill="none" stroke="#0000ff" d="M636.4846,-145.4814C592.3573,-119.3318 506.4237,-68.4082 457.58,-39.4638"/>
<polygon fill="#0000ff" stroke="#0000ff" points="459.2972,-36.413 448.9099,-34.326 455.7285,-42.4351 459.2972,-36.413"/>
</g>
</g>
</svg>
