<svg width="697px" height="443px"
 viewBox="0.00 0.00 522.91 332.00" xmlns="http://www.w3.org/2000/svg" xmlns:xlink="http://www.w3.org/1999/xlink">
<g id="graph0" class="graph" transform=" rotate(0) translate(4 328)">
<title>%0</title>
<polygon fill="#ffffff" stroke="transparent" points="-4,4 -4,-328 518.914,-328 518.914,4 -4,4"/>
<!-- eureka -->
<g id="node1" class="node">
<title>eureka</title>
<ellipse fill="none" stroke="#000000" cx="171.2019" cy="-90" rx="36.5383" ry="18"/>
<text text-anchor="middle" x="171.2019" y="-85.8" font-family="Times,serif" font-size="14.00" fill="#000000">eureka</text>
</g>
<!-- config -->
<g id="node2" class="node">
<title>config</title>
<ellipse fill="none" stroke="#000000" cx="171.2019" cy="-18" rx="35.9154" ry="18"/>
<text text-anchor="middle" x="171.2019" y="-13.8" font-family="Times,serif" font-size="14.00" fill="#000000">config</text>
</g>
<!-- eureka&#45;&gt;config -->
<g id="edge1" class="edge">
<title>eureka&#45;&gt;config</title>
<path fill="none" stroke="#0000ff" d="M171.2019,-71.8314C171.2019,-64.131 171.2019,-54.9743 171.2019,-46.4166"/>
<polygon fill="#0000ff" stroke="#0000ff" points="174.702,-46.4132 171.2019,-36.4133 167.702,-46.4133 174.702,-46.4132"/>
</g>
<!-- reminder -->
<g id="node3" class="node">
<title>reminder</title>
<ellipse fill="none" stroke="#000000" cx="61.2019" cy="-234" rx="45.7848" ry="18"/>
<text text-anchor="middle" x="61.2019" y="-229.8" font-family="Times,serif" font-size="14.00" fill="#000000">reminder</text>
</g>
<!-- reminder&#45;&gt;eureka -->
<g id="edge2" class="edge">
<title>reminder&#45;&gt;eureka</title>
<path fill="none" stroke="#0000ff" d="M74.4705,-216.6302C93.8175,-191.3033 129.8772,-144.0978 152.0855,-115.0252"/>
<polygon fill="#0000ff" stroke="#0000ff" points="154.9388,-117.0556 158.2279,-106.9842 149.3761,-112.8063 154.9388,-117.0556"/>
</g>
<!-- admin -->
<g id="node4" class="node">
<title>admin</title>
<ellipse fill="none" stroke="#000000" cx="203.2019" cy="-162" rx="35.3528" ry="18"/>
<text text-anchor="middle" x="203.2019" y="-157.8" font-family="Times,serif" font-size="14.00" fill="#000000">admin</text>
</g>
<!-- reminder&#45;&gt;admin -->
<g id="edge3" class="edge">
<title>reminder&#45;&gt;admin</title>
<path fill="none" stroke="#0000ff" d="M89.5964,-219.6028C112.4609,-208.0095 144.6797,-191.6732 168.9695,-179.3573"/>
<polygon fill="#0000ff" stroke="#0000ff" points="170.8466,-182.3298 178.1828,-174.6858 167.6809,-176.0865 170.8466,-182.3298"/>
</g>
<!-- admin&#45;&gt;eureka -->
<g id="edge4" class="edge">
<title>admin&#45;&gt;eureka</title>
<path fill="none" stroke="#0000ff" d="M195.2918,-144.2022C191.6492,-136.0064 187.2474,-126.1024 183.2084,-117.0145"/>
<polygon fill="#0000ff" stroke="#0000ff" points="186.2808,-115.3096 179.021,-107.593 179.8841,-118.1527 186.2808,-115.3096"/>
</g>
<!-- user -->
<g id="node5" class="node">
<title>user</title>
<ellipse fill="none" stroke="#000000" cx="152.2019" cy="-234" rx="27.2447" ry="18"/>
<text text-anchor="middle" x="152.2019" y="-229.8" font-family="Times,serif" font-size="14.00" fill="#000000">user</text>
</g>
<!-- user&#45;&gt;eureka -->
<g id="edge5" class="edge">
<title>user&#45;&gt;eureka</title>
<path fill="none" stroke="#0000ff" d="M152.8553,-215.9863C153.6916,-197.7569 155.5007,-168.8008 159.2019,-144 160.4777,-135.4514 162.3396,-126.2393 164.2178,-117.8868"/>
<polygon fill="#0000ff" stroke="#0000ff" points="167.6885,-118.4163 166.5628,-107.8814 160.8732,-116.819 167.6885,-118.4163"/>
</g>
<!-- user&#45;&gt;admin -->
<g id="edge6" class="edge">
<title>user&#45;&gt;admin</title>
<path fill="none" stroke="#0000ff" d="M163.7746,-217.6621C170.0937,-208.741 178.0587,-197.4962 185.1729,-187.4528"/>
<polygon fill="#0000ff" stroke="#0000ff" points="188.2188,-189.2079 191.1429,-179.0245 182.5066,-185.1617 188.2188,-189.2079"/>
</g>
<!-- oauth -->
<g id="node6" class="node">
<title>oauth</title>
<ellipse fill="none" stroke="#000000" cx="152.2019" cy="-306" rx="32.4846" ry="18"/>
<text text-anchor="middle" x="152.2019" y="-301.8" font-family="Times,serif" font-size="14.00" fill="#000000">oauth</text>
</g>
<!-- oauth&#45;&gt;eureka -->
<g id="edge7" class="edge">
<title>oauth&#45;&gt;eureka</title>
<path fill="none" stroke="#0000ff" d="M121.9914,-299.1124C83.341,-289.6179 19.7537,-271.4613 6.2019,-252 -2.9412,-238.8698 -.8438,-230.3652 6.2019,-216 32.5038,-162.3742 93.8936,-125.3774 133.9236,-105.9516"/>
<polygon fill="#0000ff" stroke="#0000ff" points="135.5587,-109.0503 143.1102,-101.6188 132.5726,-102.7191 135.5587,-109.0503"/>
</g>
<!-- oauth&#45;&gt;admin -->
<g id="edge8" class="edge">
<title>oauth&#45;&gt;admin</title>
<path fill="none" stroke="#0000ff" d="M165.8655,-289.5319C173.6162,-279.3335 182.8154,-265.6212 188.2019,-252 196.0418,-232.1747 199.7842,-208.3199 201.5706,-190.1518"/>
<polygon fill="#0000ff" stroke="#0000ff" points="205.0583,-190.4445 202.4126,-180.1853 198.0831,-189.8551 205.0583,-190.4445"/>
</g>
<!-- oauth&#45;&gt;user -->
<g id="edge9" class="edge">
<title>oauth&#45;&gt;user</title>
<path fill="none" stroke="#0000ff" d="M152.2019,-287.8314C152.2019,-280.131 152.2019,-270.9743 152.2019,-262.4166"/>
<polygon fill="#0000ff" stroke="#0000ff" points="155.702,-262.4132 152.2019,-252.4133 148.702,-262.4133 155.702,-262.4132"/>
</g>
<!-- gateway -->
<g id="node7" class="node">
<title>gateway</title>
<ellipse fill="none" stroke="#000000" cx="352.2019" cy="-234" rx="43.4183" ry="18"/>
<text text-anchor="middle" x="352.2019" y="-229.8" font-family="Times,serif" font-size="14.00" fill="#000000">gateway</text>
</g>
<!-- gateway&#45;&gt;eureka -->
<g id="edge10" class="edge">
<title>gateway&#45;&gt;eureka</title>
<path fill="none" stroke="#0000ff" d="M338.7165,-216.5568C323.169,-197.2147 296.145,-165.8628 268.2019,-144 249.6321,-129.4709 226.6599,-116.4966 207.7332,-106.909"/>
<polygon fill="#0000ff" stroke="#0000ff" points="209.0417,-103.6513 198.5273,-102.3483 205.9342,-109.9238 209.0417,-103.6513"/>
</g>
<!-- gateway&#45;&gt;admin -->
<g id="edge11" class="edge">
<title>gateway&#45;&gt;admin</title>
<path fill="none" stroke="#0000ff" d="M323.8254,-220.2879C299.4605,-208.5142 264.2444,-191.497 238.1479,-178.8866"/>
<polygon fill="#0000ff" stroke="#0000ff" points="239.5097,-175.6575 228.983,-174.458 236.464,-181.9603 239.5097,-175.6575"/>
</g>
<!-- mail -->
<g id="node8" class="node">
<title>mail</title>
<ellipse fill="none" stroke="#000000" cx="263.2019" cy="-234" rx="28.4069" ry="18"/>
<text text-anchor="middle" x="263.2019" y="-229.8" font-family="Times,serif" font-size="14.00" fill="#000000">mail</text>
</g>
<!-- mail&#45;&gt;eureka -->
<g id="edge12" class="edge">
<title>mail&#45;&gt;eureka</title>
<path fill="none" stroke="#0000ff" d="M263.8828,-216.0035C263.7762,-196.7407 261.1259,-165.989 247.2019,-144 237.5212,-128.7119 221.8016,-116.4782 207.1637,-107.5467"/>
<polygon fill="#0000ff" stroke="#0000ff" points="208.6654,-104.3726 198.2531,-102.4145 205.1717,-110.4385 208.6654,-104.3726"/>
</g>
<!-- mail&#45;&gt;admin -->
<g id="edge13" class="edge">
<title>mail&#45;&gt;admin</title>
<path fill="none" stroke="#0000ff" d="M249.886,-218.0209C242.2038,-208.8022 232.3813,-197.0153 223.73,-186.6337"/>
<polygon fill="#0000ff" stroke="#0000ff" points="226.1968,-184.1266 217.1061,-178.6851 220.8192,-188.608 226.1968,-184.1266"/>
</g>
<!-- kafka -->
<g id="node9" class="node">
<title>kafka</title>
<ellipse fill="none" stroke="#000000" cx="464.2019" cy="-306" rx="32.4634" ry="18"/>
<text text-anchor="middle" x="464.2019" y="-301.8" font-family="Times,serif" font-size="14.00" fill="#000000">kafka</text>
</g>
<!-- zookeeper -->
<g id="node10" class="node">
<title>zookeeper</title>
<ellipse fill="none" stroke="#000000" cx="464.2019" cy="-234" rx="50.925" ry="18"/>
<text text-anchor="middle" x="464.2019" y="-229.8" font-family="Times,serif" font-size="14.00" fill="#000000">zookeeper</text>
</g>
<!-- kafka&#45;&gt;zookeeper -->
<g id="edge14" class="edge">
<title>kafka&#45;&gt;zookeeper</title>
<path fill="none" stroke="#0000ff" d="M464.2019,-287.8314C464.2019,-280.131 464.2019,-270.9743 464.2019,-262.4166"/>
<polygon fill="#0000ff" stroke="#0000ff" points="467.702,-262.4132 464.2019,-252.4133 460.702,-262.4133 467.702,-262.4132"/>
</g>
<!-- proxy -->
<g id="node11" class="node">
<title>proxy</title>
<ellipse fill="none" stroke="#000000" cx="352.2019" cy="-306" rx="33.6305" ry="18"/>
<text text-anchor="middle" x="352.2019" y="-301.8" font-family="Times,serif" font-size="14.00" fill="#000000">proxy</text>
</g>
<!-- proxy&#45;&gt;gateway -->
<g id="edge15" class="edge">
<title>proxy&#45;&gt;gateway</title>
<path fill="none" stroke="#0000ff" d="M352.2019,-287.8314C352.2019,-280.131 352.2019,-270.9743 352.2019,-262.4166"/>
<polygon fill="#0000ff" stroke="#0000ff" points="355.702,-262.4132 352.2019,-252.4133 348.702,-262.4133 355.702,-262.4132"/>
</g>
</g>
</svg>
