<svg width="964px" height="347px"
 viewBox="0.00 0.00 722.71 260.00" xmlns="http://www.w3.org/2000/svg" xmlns:xlink="http://www.w3.org/1999/xlink">
<g id="graph0" class="graph" transform=" rotate(0) translate(4 256)">
<title>%0</title>
<polygon fill="#ffffff" stroke="transparent" points="-4,4 -4,-256 718.7131,-256 718.7131,4 -4,4"/>
<!-- api_gateway -->
<g id="node1" class="node">
<title>api_gateway</title>
<ellipse fill="none" stroke="#000000" cx="224.0764" cy="-162" rx="59.6723" ry="18"/>
<text text-anchor="middle" x="224.0764" y="-157.8" font-family="Times,serif" font-size="14.00" fill="#000000">api_gateway</text>
</g>
<!-- logstash -->
<g id="node2" class="node">
<title>logstash</title>
<ellipse fill="none" stroke="#000000" cx="263.0764" cy="-90" rx="42.8751" ry="18"/>
<text text-anchor="middle" x="263.0764" y="-85.8" font-family="Times,serif" font-size="14.00" fill="#000000">logstash</text>
</g>
<!-- api_gateway&#45;&gt;logstash -->
<g id="edge1" class="edge">
<title>api_gateway&#45;&gt;logstash</title>
<path fill="none" stroke="#0000ff" d="M233.7168,-144.2022C238.2507,-135.832 243.7496,-125.6802 248.7571,-116.4356"/>
<polygon fill="#0000ff" stroke="#0000ff" points="251.8615,-118.053 253.5468,-107.593 245.7064,-114.719 251.8615,-118.053"/>
</g>
<!-- consul -->
<g id="node3" class="node">
<title>consul</title>
<ellipse fill="none" stroke="#000000" cx="75.0764" cy="-90" rx="36.4975" ry="18"/>
<text text-anchor="middle" x="75.0764" y="-85.8" font-family="Times,serif" font-size="14.00" fill="#000000">consul</text>
</g>
<!-- api_gateway&#45;&gt;consul -->
<g id="edge2" class="edge">
<title>api_gateway&#45;&gt;consul</title>
<path fill="none" stroke="#0000ff" d="M192.1121,-146.5542C168.152,-134.9761 135.3643,-119.1324 110.5874,-107.1597"/>
<polygon fill="#0000ff" stroke="#0000ff" points="112.0455,-103.9771 101.5188,-102.7775 108.9998,-110.2798 112.0455,-103.9771"/>
</g>
<!-- elasticsearch -->
<g id="node4" class="node">
<title>elasticsearch</title>
<ellipse fill="none" stroke="#000000" cx="214.0764" cy="-18" rx="60.2248" ry="18"/>
<text text-anchor="middle" x="214.0764" y="-13.8" font-family="Times,serif" font-size="14.00" fill="#000000">elasticsearch</text>
</g>
<!-- logstash&#45;&gt;elasticsearch -->
<g id="edge3" class="edge">
<title>logstash&#45;&gt;elasticsearch</title>
<path fill="none" stroke="#0000ff" d="M251.2148,-72.5708C245.4032,-64.0312 238.285,-53.5719 231.8408,-44.1029"/>
<polygon fill="#0000ff" stroke="#0000ff" points="234.6889,-42.0668 226.1691,-35.7689 228.9019,-46.0052 234.6889,-42.0668"/>
</g>
<!-- service_one -->
<g id="node5" class="node">
<title>service_one</title>
<ellipse fill="none" stroke="#000000" cx="513.0764" cy="-162" rx="57.303" ry="18"/>
<text text-anchor="middle" x="513.0764" y="-157.8" font-family="Times,serif" font-size="14.00" fill="#000000">service_one</text>
</g>
<!-- service_one&#45;&gt;logstash -->
<g id="edge4" class="edge">
<title>service_one&#45;&gt;logstash</title>
<path fill="none" stroke="#0000ff" d="M468.3999,-150.7286C428.1077,-140.347 367.3305,-124.1497 315.0764,-108 311.9274,-107.0268 308.6828,-105.989 305.4255,-104.9216"/>
<polygon fill="#0000ff" stroke="#0000ff" points="306.2923,-101.521 295.6984,-101.6662 304.0706,-108.1591 306.2923,-101.521"/>
</g>
<!-- service_one&#45;&gt;consul -->
<g id="edge6" class="edge">
<title>service_one&#45;&gt;consul</title>
<path fill="none" stroke="#0000ff" d="M469.2669,-150.2199C459.6961,-147.9209 449.585,-145.6998 440.0764,-144 299.1903,-118.8153 258.8777,-142.8905 120.0764,-108 117.414,-107.3308 114.6994,-106.5398 111.9891,-105.6689"/>
<polygon fill="#0000ff" stroke="#0000ff" points="112.8888,-102.2747 102.294,-102.2405 110.555,-108.8742 112.8888,-102.2747"/>
</g>
<!-- rabbit -->
<g id="node6" class="node">
<title>rabbit</title>
<ellipse fill="none" stroke="#000000" cx="520.0764" cy="-90" rx="33.6247" ry="18"/>
<text text-anchor="middle" x="520.0764" y="-85.8" font-family="Times,serif" font-size="14.00" fill="#000000">rabbit</text>
</g>
<!-- service_one&#45;&gt;rabbit -->
<g id="edge5" class="edge">
<title>service_one&#45;&gt;rabbit</title>
<path fill="none" stroke="#0000ff" d="M514.8428,-143.8314C515.5914,-136.131 516.4816,-126.9743 517.3136,-118.4166"/>
<polygon fill="#0000ff" stroke="#0000ff" points="520.802,-118.7051 518.2862,-108.4133 513.8349,-118.0276 520.802,-118.7051"/>
</g>
<!-- service_one_db -->
<g id="node7" class="node">
<title>service_one_db</title>
<ellipse fill="none" stroke="#000000" cx="643.0764" cy="-90" rx="71.7737" ry="18"/>
<text text-anchor="middle" x="643.0764" y="-85.8" font-family="Times,serif" font-size="14.00" fill="#000000">service_one_db</text>
</g>
<!-- service_one&#45;&gt;service_one_db -->
<g id="edge7" class="edge">
<title>service_one&#45;&gt;service_one_db</title>
<path fill="none" stroke="#0000ff" d="M541.6054,-146.1993C560.0128,-136.0044 584.1898,-122.6141 604.3268,-111.4613"/>
<polygon fill="#0000ff" stroke="#0000ff" points="606.2072,-114.4208 613.2594,-106.514 602.8157,-108.2973 606.2072,-114.4208"/>
</g>
<!-- service_two -->
<g id="node8" class="node">
<title>service_two</title>
<ellipse fill="none" stroke="#000000" cx="373.0764" cy="-162" rx="57.8829" ry="18"/>
<text text-anchor="middle" x="373.0764" y="-157.8" font-family="Times,serif" font-size="14.00" fill="#000000">service_two</text>
</g>
<!-- service_two&#45;&gt;logstash -->
<g id="edge8" class="edge">
<title>service_two&#45;&gt;logstash</title>
<path fill="none" stroke="#0000ff" d="M348.1157,-145.6621C332.3539,-135.3453 311.8441,-121.9207 294.9158,-110.8404"/>
<polygon fill="#0000ff" stroke="#0000ff" points="296.7178,-107.8368 286.434,-105.2886 292.8842,-113.6937 296.7178,-107.8368"/>
</g>
<!-- service_two&#45;&gt;consul -->
<g id="edge11" class="edge">
<title>service_two&#45;&gt;consul</title>
<path fill="none" stroke="#0000ff" d="M326.1489,-151.3083C315.2961,-148.8726 303.7899,-146.3198 293.0764,-144 216.3192,-127.3797 195.269,-130.6708 120.0764,-108 117.5211,-107.2296 114.9082,-106.3737 112.2911,-105.4655"/>
<polygon fill="#0000ff" stroke="#0000ff" points="113.4853,-102.1755 102.8919,-102.0059 111.0674,-108.7447 113.4853,-102.1755"/>
</g>
<!-- service_two&#45;&gt;rabbit -->
<g id="edge9" class="edge">
<title>service_two&#45;&gt;rabbit</title>
<path fill="none" stroke="#0000ff" d="M404.2513,-146.7307C428.3147,-134.9445 461.5598,-118.6612 486.2625,-106.5619"/>
<polygon fill="#0000ff" stroke="#0000ff" points="487.8338,-109.6896 495.2749,-102.1477 484.7547,-103.4032 487.8338,-109.6896"/>
</g>
<!-- service_two_db -->
<g id="node9" class="node">
<title>service_two_db</title>
<ellipse fill="none" stroke="#000000" cx="396.0764" cy="-90" rx="72.3535" ry="18"/>
<text text-anchor="middle" x="396.0764" y="-85.8" font-family="Times,serif" font-size="14.00" fill="#000000">service_two_db</text>
</g>
<!-- service_two&#45;&gt;service_two_db -->
<g id="edge10" class="edge">
<title>service_two&#45;&gt;service_two_db</title>
<path fill="none" stroke="#0000ff" d="M378.8802,-143.8314C381.3671,-136.0463 384.3295,-126.7729 387.0889,-118.1347"/>
<polygon fill="#0000ff" stroke="#0000ff" points="390.4853,-119.0041 390.1943,-108.4133 383.8173,-116.874 390.4853,-119.0041"/>
</g>
<!-- consul2 -->
<g id="node10" class="node">
<title>consul2</title>
<ellipse fill="none" stroke="#000000" cx="41.0764" cy="-162" rx="41.1529" ry="18"/>
<text text-anchor="middle" x="41.0764" y="-157.8" font-family="Times,serif" font-size="14.00" fill="#000000">consul2</text>
</g>
<!-- consul2&#45;&gt;consul -->
<g id="edge12" class="edge">
<title>consul2&#45;&gt;consul</title>
<path fill="none" stroke="#0000ff" d="M49.4809,-144.2022C53.3923,-135.9192 58.1276,-125.8915 62.4563,-116.7248"/>
<polygon fill="#0000ff" stroke="#0000ff" points="65.6633,-118.1301 66.7685,-107.593 59.3336,-115.141 65.6633,-118.1301"/>
</g>
<!-- consul3 -->
<g id="node11" class="node">
<title>consul3</title>
<ellipse fill="none" stroke="#000000" cx="75.0764" cy="-234" rx="41.1529" ry="18"/>
<text text-anchor="middle" x="75.0764" y="-229.8" font-family="Times,serif" font-size="14.00" fill="#000000">consul3</text>
</g>
<!-- consul3&#45;&gt;consul -->
<g id="edge13" class="edge">
<title>consul3&#45;&gt;consul</title>
<path fill="none" stroke="#0000ff" d="M81.8958,-215.7996C85.4045,-205.4645 89.3081,-192.1925 91.0764,-180 93.3729,-164.1657 93.3729,-159.8343 91.0764,-144 89.7993,-135.1943 87.4084,-125.8255 84.8569,-117.4067"/>
<polygon fill="#0000ff" stroke="#0000ff" points="88.1301,-116.153 81.7291,-107.7104 81.4682,-118.3021 88.1301,-116.153"/>
</g>
<!-- consul3&#45;&gt;consul2 -->
<g id="edge14" class="edge">
<title>consul3&#45;&gt;consul2</title>
<path fill="none" stroke="#0000ff" d="M66.6719,-216.2022C62.7896,-207.981 58.0957,-198.041 53.7934,-188.9301"/>
<polygon fill="#0000ff" stroke="#0000ff" points="56.937,-187.3905 49.502,-179.8425 50.6073,-190.3796 56.937,-187.3905"/>
</g>
<!-- kibana -->
<g id="node12" class="node">
<title>kibana</title>
<ellipse fill="none" stroke="#000000" cx="166.0764" cy="-90" rx="36.5594" ry="18"/>
<text text-anchor="middle" x="166.0764" y="-85.8" font-family="Times,serif" font-size="14.00" fill="#000000">kibana</text>
</g>
<!-- kibana&#45;&gt;elasticsearch -->
<g id="edge15" class="edge">
<title>kibana&#45;&gt;elasticsearch</title>
<path fill="none" stroke="#0000ff" d="M177.6958,-72.5708C183.3889,-64.0312 190.3618,-53.5719 196.6744,-44.1029"/>
<polygon fill="#0000ff" stroke="#0000ff" points="199.5956,-46.0309 202.2304,-35.7689 193.7712,-42.1479 199.5956,-46.0309"/>
</g>
</g>
</svg>
